<mxfile host="app.diagrams.net" agent="Mozilla/5.0 (Windows NT 10.0; Win64; x64) AppleWebKit/537.36 (KHTML, like Gecko) Chrome/140.0.0.0 Safari/537.36" version="28.2.5">
  <diagram name="Página-1" id="nAtM_xPbGz3R0BzyVeKY">
    <mxGraphModel dx="2185" dy="740" grid="1" gridSize="10" guides="1" tooltips="1" connect="1" arrows="1" fold="1" page="1" pageScale="1" pageWidth="827" pageHeight="1169" math="0" shadow="0">
      <root>
        <mxCell id="0" />
        <mxCell id="1" parent="0" />
        <mxCell id="7xk3g6JaElh0pvHqVvv3-3" value="Tela de Boas Vindas" style="rounded=1;whiteSpace=wrap;html=1;" parent="1" vertex="1">
          <mxGeometry x="35" y="160" width="120" height="60" as="geometry" />
        </mxCell>
        <mxCell id="7xk3g6JaElh0pvHqVvv3-5" value="" style="ellipse;html=1;shape=startState;fillColor=#000000;strokeColor=#ff0000;" parent="1" vertex="1">
          <mxGeometry x="80" y="60" width="30" height="30" as="geometry" />
        </mxCell>
        <mxCell id="7xk3g6JaElh0pvHqVvv3-6" value="" style="edgeStyle=orthogonalEdgeStyle;html=1;verticalAlign=bottom;endArrow=open;endSize=8;strokeColor=#ff0000;rounded=0;" parent="1" source="7xk3g6JaElh0pvHqVvv3-5" target="7xk3g6JaElh0pvHqVvv3-3" edge="1">
          <mxGeometry relative="1" as="geometry">
            <mxPoint x="195" y="160" as="targetPoint" />
            <Array as="points" />
          </mxGeometry>
        </mxCell>
        <mxCell id="7xk3g6JaElh0pvHqVvv3-7" value="Tela de Login" style="rounded=1;whiteSpace=wrap;html=1;" parent="1" vertex="1">
          <mxGeometry x="354" y="480" width="120" height="60" as="geometry" />
        </mxCell>
        <mxCell id="7xk3g6JaElh0pvHqVvv3-14" value="" style="edgeStyle=orthogonalEdgeStyle;rounded=0;orthogonalLoop=1;jettySize=auto;html=1;" parent="1" target="7xk3g6JaElh0pvHqVvv3-13" edge="1">
          <mxGeometry relative="1" as="geometry">
            <mxPoint x="295" y="310" as="sourcePoint" />
          </mxGeometry>
        </mxCell>
        <mxCell id="7xk3g6JaElh0pvHqVvv3-10" value="Tela de Cadastro" style="rounded=1;whiteSpace=wrap;html=1;" parent="1" vertex="1">
          <mxGeometry x="580" y="280" width="120" height="60" as="geometry" />
        </mxCell>
        <mxCell id="7xk3g6JaElh0pvHqVvv3-12" value="" style="endArrow=classic;html=1;rounded=0;entryX=0;entryY=0.5;entryDx=0;entryDy=0;exitX=0.5;exitY=1;exitDx=0;exitDy=0;" parent="1" source="7xk3g6JaElh0pvHqVvv3-3" edge="1">
          <mxGeometry width="50" height="50" relative="1" as="geometry">
            <mxPoint x="330" y="180" as="sourcePoint" />
            <mxPoint x="190" y="310" as="targetPoint" />
            <Array as="points">
              <mxPoint x="95" y="310" />
            </Array>
          </mxGeometry>
        </mxCell>
        <mxCell id="7xk3g6JaElh0pvHqVvv3-16" value="" style="edgeStyle=orthogonalEdgeStyle;rounded=0;orthogonalLoop=1;jettySize=auto;html=1;" parent="1" source="7xk3g6JaElh0pvHqVvv3-13" target="7xk3g6JaElh0pvHqVvv3-10" edge="1">
          <mxGeometry relative="1" as="geometry" />
        </mxCell>
        <mxCell id="7xk3g6JaElh0pvHqVvv3-17" value="Não" style="edgeLabel;html=1;align=center;verticalAlign=middle;resizable=0;points=[];" parent="7xk3g6JaElh0pvHqVvv3-16" vertex="1" connectable="0">
          <mxGeometry x="-0.0175" y="2" relative="1" as="geometry">
            <mxPoint as="offset" />
          </mxGeometry>
        </mxCell>
        <mxCell id="7xk3g6JaElh0pvHqVvv3-13" value="Tem Cadastro?" style="rhombus;whiteSpace=wrap;html=1;" parent="1" vertex="1">
          <mxGeometry x="361" y="260" width="105" height="100" as="geometry" />
        </mxCell>
        <mxCell id="7xk3g6JaElh0pvHqVvv3-15" value="&lt;font style=&quot;vertical-align: inherit;&quot; dir=&quot;auto&quot;&gt;&lt;font style=&quot;vertical-align: inherit;&quot; dir=&quot;auto&quot;&gt;Opção de Cadastro e Login&lt;/font&gt;&lt;/font&gt;" style="rounded=1;whiteSpace=wrap;html=1;" parent="1" vertex="1">
          <mxGeometry x="190" y="280" width="120" height="60" as="geometry" />
        </mxCell>
        <mxCell id="7xk3g6JaElh0pvHqVvv3-18" value="" style="endArrow=classic;html=1;rounded=0;exitX=0.5;exitY=1;exitDx=0;exitDy=0;entryX=0.5;entryY=0;entryDx=0;entryDy=0;" parent="1" source="7xk3g6JaElh0pvHqVvv3-13" target="7xk3g6JaElh0pvHqVvv3-7" edge="1">
          <mxGeometry width="50" height="50" relative="1" as="geometry">
            <mxPoint x="290" y="480" as="sourcePoint" />
            <mxPoint x="414" y="450" as="targetPoint" />
          </mxGeometry>
        </mxCell>
        <mxCell id="7xk3g6JaElh0pvHqVvv3-19" value="Sim" style="edgeLabel;html=1;align=center;verticalAlign=middle;resizable=0;points=[];" parent="7xk3g6JaElh0pvHqVvv3-18" vertex="1" connectable="0">
          <mxGeometry x="0.022" y="-2" relative="1" as="geometry">
            <mxPoint as="offset" />
          </mxGeometry>
        </mxCell>
        <mxCell id="7xk3g6JaElh0pvHqVvv3-21" value="" style="endArrow=classic;html=1;rounded=0;exitX=0.5;exitY=1;exitDx=0;exitDy=0;" parent="1" source="7xk3g6JaElh0pvHqVvv3-7" edge="1">
          <mxGeometry width="50" height="50" relative="1" as="geometry">
            <mxPoint x="510" y="680" as="sourcePoint" />
            <mxPoint x="414" y="640" as="targetPoint" />
          </mxGeometry>
        </mxCell>
        <mxCell id="7xk3g6JaElh0pvHqVvv3-33" value="" style="edgeStyle=orthogonalEdgeStyle;rounded=0;orthogonalLoop=1;jettySize=auto;html=1;" parent="1" source="7xk3g6JaElh0pvHqVvv3-22" target="7xk3g6JaElh0pvHqVvv3-32" edge="1">
          <mxGeometry relative="1" as="geometry" />
        </mxCell>
        <mxCell id="7xk3g6JaElh0pvHqVvv3-42" value="" style="edgeStyle=orthogonalEdgeStyle;rounded=0;orthogonalLoop=1;jettySize=auto;html=1;" parent="1" source="7xk3g6JaElh0pvHqVvv3-22" target="7xk3g6JaElh0pvHqVvv3-41" edge="1">
          <mxGeometry relative="1" as="geometry" />
        </mxCell>
        <mxCell id="7xk3g6JaElh0pvHqVvv3-22" value="Tela inicial" style="rounded=1;whiteSpace=wrap;html=1;" parent="1" vertex="1">
          <mxGeometry x="354" y="900" width="120" height="60" as="geometry" />
        </mxCell>
        <mxCell id="7xk3g6JaElh0pvHqVvv3-24" value="&lt;div&gt;&lt;br&gt;&lt;/div&gt;&lt;div&gt;( Verificação )&lt;/div&gt;O Login está correto?" style="rhombus;whiteSpace=wrap;html=1;" parent="1" vertex="1">
          <mxGeometry x="361" y="640" width="105" height="120" as="geometry" />
        </mxCell>
        <mxCell id="7xk3g6JaElh0pvHqVvv3-26" value="" style="endArrow=classic;html=1;rounded=0;entryX=0.5;entryY=0;entryDx=0;entryDy=0;exitX=0.5;exitY=1;exitDx=0;exitDy=0;" parent="1" source="7xk3g6JaElh0pvHqVvv3-24" target="7xk3g6JaElh0pvHqVvv3-22" edge="1">
          <mxGeometry width="50" height="50" relative="1" as="geometry">
            <mxPoint x="510" y="580" as="sourcePoint" />
            <mxPoint x="560" y="530" as="targetPoint" />
          </mxGeometry>
        </mxCell>
        <mxCell id="7xk3g6JaElh0pvHqVvv3-27" value="Sim" style="edgeLabel;html=1;align=center;verticalAlign=middle;resizable=0;points=[];" parent="7xk3g6JaElh0pvHqVvv3-26" vertex="1" connectable="0">
          <mxGeometry x="-0.1856" y="1" relative="1" as="geometry">
            <mxPoint as="offset" />
          </mxGeometry>
        </mxCell>
        <mxCell id="7xk3g6JaElh0pvHqVvv3-28" value="" style="endArrow=classic;html=1;rounded=0;entryX=0;entryY=0.5;entryDx=0;entryDy=0;" parent="1" target="7xk3g6JaElh0pvHqVvv3-7" edge="1">
          <mxGeometry width="50" height="50" relative="1" as="geometry">
            <mxPoint x="360" y="700" as="sourcePoint" />
            <mxPoint x="560" y="730" as="targetPoint" />
            <Array as="points">
              <mxPoint x="210" y="700" />
              <mxPoint x="150" y="700" />
              <mxPoint x="150" y="510" />
            </Array>
          </mxGeometry>
        </mxCell>
        <mxCell id="7xk3g6JaElh0pvHqVvv3-29" value="Não" style="edgeLabel;html=1;align=center;verticalAlign=middle;resizable=0;points=[];" parent="7xk3g6JaElh0pvHqVvv3-28" vertex="1" connectable="0">
          <mxGeometry y="1" relative="1" as="geometry">
            <mxPoint as="offset" />
          </mxGeometry>
        </mxCell>
        <mxCell id="7xk3g6JaElh0pvHqVvv3-46" value="" style="edgeStyle=orthogonalEdgeStyle;rounded=0;orthogonalLoop=1;jettySize=auto;html=1;entryX=0.5;entryY=0;entryDx=0;entryDy=0;" parent="1" source="7xk3g6JaElh0pvHqVvv3-32" target="7xk3g6JaElh0pvHqVvv3-47" edge="1">
          <mxGeometry relative="1" as="geometry">
            <mxPoint x="414" y="1250" as="targetPoint" />
          </mxGeometry>
        </mxCell>
        <mxCell id="7xk3g6JaElh0pvHqVvv3-32" value="Opção de&amp;nbsp;&lt;div&gt;Criação de Conta&lt;/div&gt;&lt;div&gt;Bancária&amp;nbsp;&lt;/div&gt;" style="whiteSpace=wrap;html=1;rounded=1;" parent="1" vertex="1">
          <mxGeometry x="354" y="1090" width="120" height="60" as="geometry" />
        </mxCell>
        <mxCell id="7xk3g6JaElh0pvHqVvv3-34" value="" style="endArrow=classic;html=1;rounded=0;" parent="1" edge="1">
          <mxGeometry width="50" height="50" relative="1" as="geometry">
            <mxPoint x="430" y="820" as="sourcePoint" />
            <mxPoint x="660" y="820" as="targetPoint" />
          </mxGeometry>
        </mxCell>
        <mxCell id="7xk3g6JaElh0pvHqVvv3-35" value="&lt;font style=&quot;vertical-align: inherit;&quot; dir=&quot;auto&quot;&gt;&lt;font style=&quot;vertical-align: inherit;&quot; dir=&quot;auto&quot;&gt;Solicitar Código de&amp;nbsp;&lt;/font&gt;&lt;/font&gt;&lt;div&gt;&lt;span style=&quot;background-color: transparent; color: light-dark(rgb(0, 0, 0), rgb(255, 255, 255));&quot;&gt;&lt;font style=&quot;vertical-align: inherit;&quot; dir=&quot;auto&quot;&gt;&lt;font style=&quot;vertical-align: inherit;&quot; dir=&quot;auto&quot;&gt;Verificação&lt;/font&gt;&lt;/font&gt;&lt;/span&gt;&lt;/div&gt;" style="rounded=1;whiteSpace=wrap;html=1;" parent="1" vertex="1">
          <mxGeometry x="660" y="790" width="120" height="60" as="geometry" />
        </mxCell>
        <mxCell id="7xk3g6JaElh0pvHqVvv3-41" value="Sair da Conta" style="whiteSpace=wrap;html=1;rounded=1;" parent="1" vertex="1">
          <mxGeometry x="80" y="900" width="120" height="60" as="geometry" />
        </mxCell>
        <mxCell id="7xk3g6JaElh0pvHqVvv3-43" value="" style="endArrow=classic;html=1;rounded=0;exitX=0;exitY=0.5;exitDx=0;exitDy=0;" parent="1" source="7xk3g6JaElh0pvHqVvv3-41" edge="1">
          <mxGeometry width="50" height="50" relative="1" as="geometry">
            <mxPoint x="30" y="920" as="sourcePoint" />
            <mxPoint x="-70" y="930" as="targetPoint" />
          </mxGeometry>
        </mxCell>
        <mxCell id="7xk3g6JaElh0pvHqVvv3-44" value="" style="ellipse;html=1;shape=endState;fillColor=#000000;strokeColor=#ff0000;" parent="1" vertex="1">
          <mxGeometry x="-100" y="915" width="30" height="30" as="geometry" />
        </mxCell>
        <mxCell id="7xk3g6JaElh0pvHqVvv3-49" value="" style="edgeStyle=orthogonalEdgeStyle;rounded=0;orthogonalLoop=1;jettySize=auto;html=1;entryX=1;entryY=0.5;entryDx=0;entryDy=0;" parent="1" source="zpXSYYtoqPTxO0NAMw40-21" target="7xk3g6JaElh0pvHqVvv3-62" edge="1">
          <mxGeometry relative="1" as="geometry">
            <mxPoint x="150" y="1265" as="targetPoint" />
          </mxGeometry>
        </mxCell>
        <mxCell id="7xk3g6JaElh0pvHqVvv3-51" value="" style="edgeStyle=orthogonalEdgeStyle;rounded=0;orthogonalLoop=1;jettySize=auto;html=1;entryX=0;entryY=0.5;entryDx=0;entryDy=0;" parent="1" source="zpXSYYtoqPTxO0NAMw40-2" target="7xk3g6JaElh0pvHqVvv3-63" edge="1">
          <mxGeometry relative="1" as="geometry">
            <mxPoint x="720" y="1265" as="targetPoint" />
          </mxGeometry>
        </mxCell>
        <mxCell id="7xk3g6JaElh0pvHqVvv3-61" value="" style="edgeStyle=orthogonalEdgeStyle;rounded=0;orthogonalLoop=1;jettySize=auto;html=1;entryX=0.5;entryY=0;entryDx=0;entryDy=0;" parent="1" source="zpXSYYtoqPTxO0NAMw40-19" target="7xk3g6JaElh0pvHqVvv3-68" edge="1">
          <mxGeometry relative="1" as="geometry">
            <mxPoint x="414" y="1680" as="targetPoint" />
          </mxGeometry>
        </mxCell>
        <mxCell id="-yAS3vKNDVLwqYnA1DSh-10" style="edgeStyle=orthogonalEdgeStyle;rounded=0;orthogonalLoop=1;jettySize=auto;html=1;exitX=0;exitY=1;exitDx=0;exitDy=0;entryX=0.5;entryY=0;entryDx=0;entryDy=0;" edge="1" parent="1" source="7xk3g6JaElh0pvHqVvv3-47" target="-yAS3vKNDVLwqYnA1DSh-11">
          <mxGeometry relative="1" as="geometry">
            <mxPoint x="180" y="1740" as="targetPoint" />
          </mxGeometry>
        </mxCell>
        <mxCell id="7xk3g6JaElh0pvHqVvv3-47" value="&lt;font style=&quot;vertical-align: inherit;&quot; dir=&quot;auto&quot;&gt;&lt;font style=&quot;vertical-align: inherit;&quot; dir=&quot;auto&quot;&gt;Opções&amp;nbsp;&lt;/font&gt;&lt;/font&gt;&lt;div&gt;&lt;font style=&quot;vertical-align: inherit;&quot; dir=&quot;auto&quot;&gt;&lt;font style=&quot;vertical-align: inherit;&quot; dir=&quot;auto&quot;&gt;de Operações&amp;nbsp;&lt;/font&gt;&lt;/font&gt;&lt;/div&gt;&lt;div&gt;&lt;font style=&quot;vertical-align: inherit;&quot; dir=&quot;auto&quot;&gt;&lt;font style=&quot;vertical-align: inherit;&quot; dir=&quot;auto&quot;&gt;Bancárias&lt;/font&gt;&lt;/font&gt;&lt;/div&gt;" style="rhombus;whiteSpace=wrap;html=1;" parent="1" vertex="1">
          <mxGeometry x="344" y="1400" width="138.5" height="230" as="geometry" />
        </mxCell>
        <mxCell id="-yAS3vKNDVLwqYnA1DSh-12" style="edgeStyle=orthogonalEdgeStyle;rounded=0;orthogonalLoop=1;jettySize=auto;html=1;exitX=0.5;exitY=1;exitDx=0;exitDy=0;entryX=0.5;entryY=1;entryDx=0;entryDy=0;" edge="1" parent="1" source="7xk3g6JaElh0pvHqVvv3-62" target="-yAS3vKNDVLwqYnA1DSh-2">
          <mxGeometry relative="1" as="geometry" />
        </mxCell>
        <mxCell id="7xk3g6JaElh0pvHqVvv3-62" value="Tela de Saque" style="rounded=1;whiteSpace=wrap;html=1;" parent="1" vertex="1">
          <mxGeometry x="-10" y="1485" width="120" height="60" as="geometry" />
        </mxCell>
        <mxCell id="zpXSYYtoqPTxO0NAMw40-25" value="" style="edgeStyle=orthogonalEdgeStyle;rounded=0;orthogonalLoop=1;jettySize=auto;html=1;" parent="1" source="7xk3g6JaElh0pvHqVvv3-63" target="zpXSYYtoqPTxO0NAMw40-24" edge="1">
          <mxGeometry relative="1" as="geometry" />
        </mxCell>
        <mxCell id="7xk3g6JaElh0pvHqVvv3-63" value="Tela de Depósito" style="rounded=1;whiteSpace=wrap;html=1;" parent="1" vertex="1">
          <mxGeometry x="740" y="1485" width="120" height="60" as="geometry" />
        </mxCell>
        <mxCell id="7xk3g6JaElh0pvHqVvv3-65" value="Menu" style="rounded=1;whiteSpace=wrap;html=1;" parent="1" vertex="1">
          <mxGeometry x="354" y="1260" width="120" height="60" as="geometry" />
        </mxCell>
        <mxCell id="-yAS3vKNDVLwqYnA1DSh-4" style="edgeStyle=orthogonalEdgeStyle;rounded=0;orthogonalLoop=1;jettySize=auto;html=1;entryX=0.5;entryY=0;entryDx=0;entryDy=0;" edge="1" parent="1" source="7xk3g6JaElh0pvHqVvv3-68" target="-yAS3vKNDVLwqYnA1DSh-2">
          <mxGeometry relative="1" as="geometry" />
        </mxCell>
        <mxCell id="7xk3g6JaElh0pvHqVvv3-68" value="Tela de&amp;nbsp;&lt;div&gt;Transferência&lt;/div&gt;" style="rounded=1;whiteSpace=wrap;html=1;" parent="1" vertex="1">
          <mxGeometry x="354" y="1860" width="120" height="60" as="geometry" />
        </mxCell>
        <mxCell id="7xk3g6JaElh0pvHqVvv3-71" value="" style="endArrow=classic;html=1;rounded=0;entryX=0.5;entryY=1;entryDx=0;entryDy=0;exitX=0;exitY=0.5;exitDx=0;exitDy=0;" parent="1" source="7xk3g6JaElh0pvHqVvv3-65" target="7xk3g6JaElh0pvHqVvv3-44" edge="1">
          <mxGeometry width="50" height="50" relative="1" as="geometry">
            <mxPoint x="80" y="1320" as="sourcePoint" />
            <mxPoint x="570" y="1080" as="targetPoint" />
            <Array as="points">
              <mxPoint x="-80" y="1290" />
            </Array>
          </mxGeometry>
        </mxCell>
        <mxCell id="7xk3g6JaElh0pvHqVvv3-72" value="Sair da Conta" style="rounded=1;whiteSpace=wrap;html=1;" parent="1" vertex="1">
          <mxGeometry x="80" y="1260" width="120" height="60" as="geometry" />
        </mxCell>
        <mxCell id="7xk3g6JaElh0pvHqVvv3-74" value="" style="edgeStyle=orthogonalEdgeStyle;rounded=0;orthogonalLoop=1;jettySize=auto;html=1;" parent="1" source="7xk3g6JaElh0pvHqVvv3-65" target="7xk3g6JaElh0pvHqVvv3-73" edge="1">
          <mxGeometry relative="1" as="geometry">
            <mxPoint x="474" y="1290" as="sourcePoint" />
            <mxPoint x="1050" y="1290" as="targetPoint" />
          </mxGeometry>
        </mxCell>
        <mxCell id="7xk3g6JaElh0pvHqVvv3-82" value="" style="edgeStyle=orthogonalEdgeStyle;rounded=0;orthogonalLoop=1;jettySize=auto;html=1;entryX=0;entryY=0.5;entryDx=0;entryDy=0;exitX=1;exitY=0.5;exitDx=0;exitDy=0;" parent="1" source="7xk3g6JaElh0pvHqVvv3-73" target="7xk3g6JaElh0pvHqVvv3-78" edge="1">
          <mxGeometry relative="1" as="geometry">
            <mxPoint x="795" y="1035" as="targetPoint" />
            <Array as="points" />
            <mxPoint x="1090" y="1290" as="sourcePoint" />
          </mxGeometry>
        </mxCell>
        <mxCell id="7xk3g6JaElh0pvHqVvv3-73" value="&lt;font style=&quot;vertical-align: inherit;&quot; dir=&quot;auto&quot;&gt;&lt;font style=&quot;vertical-align: inherit;&quot; dir=&quot;auto&quot;&gt;&lt;font style=&quot;vertical-align: inherit;&quot; dir=&quot;auto&quot;&gt;&lt;font style=&quot;vertical-align: inherit;&quot; dir=&quot;auto&quot;&gt;&lt;font style=&quot;vertical-align: inherit;&quot; dir=&quot;auto&quot;&gt;&lt;font style=&quot;vertical-align: inherit;&quot; dir=&quot;auto&quot;&gt;&lt;font style=&quot;vertical-align: inherit;&quot; dir=&quot;auto&quot;&gt;&lt;font style=&quot;vertical-align: inherit;&quot; dir=&quot;auto&quot;&gt;&lt;font style=&quot;vertical-align: inherit;&quot; dir=&quot;auto&quot;&gt;&lt;font style=&quot;vertical-align: inherit;&quot; dir=&quot;auto&quot;&gt;&lt;font style=&quot;vertical-align: inherit;&quot; dir=&quot;auto&quot;&gt;&lt;font style=&quot;vertical-align: inherit;&quot; dir=&quot;auto&quot;&gt;&lt;font style=&quot;vertical-align: inherit;&quot; dir=&quot;auto&quot;&gt;&lt;font style=&quot;vertical-align: inherit;&quot; dir=&quot;auto&quot;&gt;&lt;font style=&quot;vertical-align: inherit;&quot; dir=&quot;auto&quot;&gt;&lt;font style=&quot;vertical-align: inherit;&quot; dir=&quot;auto&quot;&gt;&lt;font style=&quot;vertical-align: inherit;&quot; dir=&quot;auto&quot;&gt;&lt;font style=&quot;vertical-align: inherit;&quot; dir=&quot;auto&quot;&gt;Opção para&amp;nbsp;&lt;/font&gt;&lt;/font&gt;&lt;/font&gt;&lt;/font&gt;&lt;/font&gt;&lt;/font&gt;&lt;/font&gt;&lt;/font&gt;&lt;/font&gt;&lt;/font&gt;&lt;/font&gt;&lt;/font&gt;&lt;/font&gt;&lt;/font&gt;&lt;/font&gt;&lt;/font&gt;&lt;/font&gt;&lt;/font&gt;&lt;div&gt;&lt;font style=&quot;vertical-align: inherit;&quot; dir=&quot;auto&quot;&gt;&lt;font style=&quot;vertical-align: inherit;&quot; dir=&quot;auto&quot;&gt;&lt;font style=&quot;vertical-align: inherit;&quot; dir=&quot;auto&quot;&gt;&lt;font style=&quot;vertical-align: inherit;&quot; dir=&quot;auto&quot;&gt;&lt;font style=&quot;vertical-align: inherit;&quot; dir=&quot;auto&quot;&gt;&lt;font style=&quot;vertical-align: inherit;&quot; dir=&quot;auto&quot;&gt;&lt;font style=&quot;vertical-align: inherit;&quot; dir=&quot;auto&quot;&gt;&lt;font style=&quot;vertical-align: inherit;&quot; dir=&quot;auto&quot;&gt;&lt;font style=&quot;vertical-align: inherit;&quot; dir=&quot;auto&quot;&gt;&lt;font style=&quot;vertical-align: inherit;&quot; dir=&quot;auto&quot;&gt;&lt;font style=&quot;vertical-align: inherit;&quot; dir=&quot;auto&quot;&gt;&lt;font style=&quot;vertical-align: inherit;&quot; dir=&quot;auto&quot;&gt;&lt;font style=&quot;vertical-align: inherit;&quot; dir=&quot;auto&quot;&gt;&lt;font style=&quot;vertical-align: inherit;&quot; dir=&quot;auto&quot;&gt;&lt;font style=&quot;vertical-align: inherit;&quot; dir=&quot;auto&quot;&gt;&lt;font style=&quot;vertical-align: inherit;&quot; dir=&quot;auto&quot;&gt;Contratar&lt;/font&gt;&lt;/font&gt;&lt;/font&gt;&lt;/font&gt;&lt;/font&gt;&lt;/font&gt;&lt;/font&gt;&lt;/font&gt;&lt;/font&gt;&lt;/font&gt;&lt;/font&gt;&lt;/font&gt;&lt;/font&gt;&lt;/font&gt;&lt;/font&gt;&lt;/font&gt;&lt;div&gt;&lt;font style=&quot;vertical-align: inherit;&quot; dir=&quot;auto&quot;&gt;&lt;font style=&quot;vertical-align: inherit;&quot; dir=&quot;auto&quot;&gt;&lt;font style=&quot;vertical-align: inherit;&quot; dir=&quot;auto&quot;&gt;&lt;font style=&quot;vertical-align: inherit;&quot; dir=&quot;auto&quot;&gt;&lt;font style=&quot;vertical-align: inherit;&quot; dir=&quot;auto&quot;&gt;&lt;font style=&quot;vertical-align: inherit;&quot; dir=&quot;auto&quot;&gt;&lt;font style=&quot;vertical-align: inherit;&quot; dir=&quot;auto&quot;&gt;&lt;font style=&quot;vertical-align: inherit;&quot; dir=&quot;auto&quot;&gt;&lt;font style=&quot;vertical-align: inherit;&quot; dir=&quot;auto&quot;&gt;&lt;font style=&quot;vertical-align: inherit;&quot; dir=&quot;auto&quot;&gt;&lt;font style=&quot;vertical-align: inherit;&quot; dir=&quot;auto&quot;&gt;&lt;font style=&quot;vertical-align: inherit;&quot; dir=&quot;auto&quot;&gt;&lt;font style=&quot;vertical-align: inherit;&quot; dir=&quot;auto&quot;&gt;&lt;font style=&quot;vertical-align: inherit;&quot; dir=&quot;auto&quot;&gt;&amp;nbsp;Plano&amp;nbsp;&lt;/font&gt;&lt;/font&gt;&lt;/font&gt;&lt;/font&gt;&lt;/font&gt;&lt;/font&gt;&lt;/font&gt;&lt;/font&gt;&lt;/font&gt;&lt;/font&gt;&lt;/font&gt;&lt;/font&gt;&lt;/font&gt;&lt;/font&gt;&lt;span style=&quot;background-color: transparent; color: light-dark(rgb(0, 0, 0), rgb(255, 255, 255));&quot;&gt;&lt;font style=&quot;vertical-align: inherit;&quot; dir=&quot;auto&quot;&gt;&lt;font style=&quot;vertical-align: inherit;&quot; dir=&quot;auto&quot;&gt;de Crédito&lt;/font&gt;&lt;/font&gt;&lt;/span&gt;&lt;/div&gt;&lt;div&gt;&lt;div&gt;&lt;div&gt;&lt;br&gt;&lt;/div&gt;&lt;/div&gt;&lt;/div&gt;&lt;/div&gt;" style="rhombus;whiteSpace=wrap;html=1;" parent="1" vertex="1">
          <mxGeometry x="700" y="1206.25" width="180" height="167.5" as="geometry" />
        </mxCell>
        <mxCell id="7xk3g6JaElh0pvHqVvv3-78" value="&lt;font style=&quot;vertical-align: inherit;&quot; dir=&quot;auto&quot;&gt;&lt;font style=&quot;vertical-align: inherit;&quot; dir=&quot;auto&quot;&gt;Tela de Contratação de Plano de Crédito&lt;/font&gt;&lt;/font&gt;" style="rounded=1;whiteSpace=wrap;html=1;" parent="1" vertex="1">
          <mxGeometry x="1060" y="1245" width="155" height="90" as="geometry" />
        </mxCell>
        <mxCell id="zpXSYYtoqPTxO0NAMw40-13" value="" style="edgeStyle=orthogonalEdgeStyle;rounded=0;orthogonalLoop=1;jettySize=auto;html=1;entryX=0;entryY=0.5;entryDx=0;entryDy=0;" parent="1" source="7xk3g6JaElh0pvHqVvv3-47" target="zpXSYYtoqPTxO0NAMw40-2" edge="1">
          <mxGeometry relative="1" as="geometry">
            <mxPoint x="740" y="1515" as="targetPoint" />
            <mxPoint x="483" y="1515" as="sourcePoint" />
          </mxGeometry>
        </mxCell>
        <mxCell id="zpXSYYtoqPTxO0NAMw40-2" value="depositar" style="whiteSpace=wrap;html=1;rounded=1;" parent="1" vertex="1">
          <mxGeometry x="560" y="1485" width="120" height="60" as="geometry" />
        </mxCell>
        <mxCell id="zpXSYYtoqPTxO0NAMw40-20" value="" style="edgeStyle=orthogonalEdgeStyle;rounded=0;orthogonalLoop=1;jettySize=auto;html=1;entryX=1;entryY=0.5;entryDx=0;entryDy=0;" parent="1" source="7xk3g6JaElh0pvHqVvv3-47" target="zpXSYYtoqPTxO0NAMw40-21" edge="1">
          <mxGeometry relative="1" as="geometry">
            <mxPoint x="110" y="1515" as="targetPoint" />
            <mxPoint x="344" y="1515" as="sourcePoint" />
          </mxGeometry>
        </mxCell>
        <mxCell id="zpXSYYtoqPTxO0NAMw40-21" value="saque" style="rounded=1;whiteSpace=wrap;html=1;" parent="1" vertex="1">
          <mxGeometry x="170" y="1485" width="120" height="60" as="geometry" />
        </mxCell>
        <mxCell id="zpXSYYtoqPTxO0NAMw40-23" value="" style="edgeStyle=orthogonalEdgeStyle;rounded=0;orthogonalLoop=1;jettySize=auto;html=1;entryX=0.5;entryY=0;entryDx=0;entryDy=0;" parent="1" source="7xk3g6JaElh0pvHqVvv3-47" target="zpXSYYtoqPTxO0NAMw40-19" edge="1">
          <mxGeometry relative="1" as="geometry">
            <mxPoint x="414" y="1860" as="targetPoint" />
            <mxPoint x="413" y="1630" as="sourcePoint" />
          </mxGeometry>
        </mxCell>
        <mxCell id="zpXSYYtoqPTxO0NAMw40-19" value="transferir" style="rounded=1;whiteSpace=wrap;html=1;" parent="1" vertex="1">
          <mxGeometry x="353.25" y="1710" width="120" height="60" as="geometry" />
        </mxCell>
        <mxCell id="-yAS3vKNDVLwqYnA1DSh-5" style="edgeStyle=orthogonalEdgeStyle;rounded=0;orthogonalLoop=1;jettySize=auto;html=1;entryX=1;entryY=0.5;entryDx=0;entryDy=0;" edge="1" parent="1" source="zpXSYYtoqPTxO0NAMw40-24" target="-yAS3vKNDVLwqYnA1DSh-2">
          <mxGeometry relative="1" as="geometry">
            <Array as="points">
              <mxPoint x="800" y="2020" />
            </Array>
          </mxGeometry>
        </mxCell>
        <mxCell id="zpXSYYtoqPTxO0NAMw40-24" value="valor" style="whiteSpace=wrap;html=1;rounded=1;shadow=1;" parent="1" vertex="1">
          <mxGeometry x="740" y="1625" width="120" height="60" as="geometry" />
        </mxCell>
        <mxCell id="-yAS3vKNDVLwqYnA1DSh-2" value="&lt;font style=&quot;vertical-align: inherit;&quot; dir=&quot;auto&quot;&gt;&lt;font style=&quot;vertical-align: inherit;&quot; dir=&quot;auto&quot;&gt;Encerra o sistema&lt;/font&gt;&lt;/font&gt;" style="rounded=1;whiteSpace=wrap;html=1;" vertex="1" parent="1">
          <mxGeometry x="354" y="1990" width="120" height="60" as="geometry" />
        </mxCell>
        <mxCell id="-yAS3vKNDVLwqYnA1DSh-6" value="&lt;font style=&quot;vertical-align: inherit;&quot; dir=&quot;auto&quot;&gt;&lt;font style=&quot;vertical-align: inherit;&quot; dir=&quot;auto&quot;&gt;&lt;font style=&quot;vertical-align: inherit;&quot; dir=&quot;auto&quot;&gt;&lt;font style=&quot;vertical-align: inherit;&quot; dir=&quot;auto&quot;&gt;Gerar Código de&amp;nbsp;&lt;/font&gt;&lt;/font&gt;&lt;/font&gt;&lt;/font&gt;&lt;div&gt;&lt;span style=&quot;background-color: transparent; color: light-dark(rgb(0, 0, 0), rgb(255, 255, 255));&quot;&gt;&lt;font style=&quot;vertical-align: inherit;&quot; dir=&quot;auto&quot;&gt;&lt;font style=&quot;vertical-align: inherit;&quot; dir=&quot;auto&quot;&gt;&lt;font style=&quot;vertical-align: inherit;&quot; dir=&quot;auto&quot;&gt;&lt;font style=&quot;vertical-align: inherit;&quot; dir=&quot;auto&quot;&gt;Verificação&lt;/font&gt;&lt;/font&gt;&lt;/font&gt;&lt;/font&gt;&lt;/span&gt;&lt;/div&gt;" style="rounded=1;whiteSpace=wrap;html=1;" vertex="1" parent="1">
          <mxGeometry x="580" y="480" width="120" height="60" as="geometry" />
        </mxCell>
        <mxCell id="-yAS3vKNDVLwqYnA1DSh-7" value="" style="endArrow=classic;html=1;rounded=0;entryX=1;entryY=0.5;entryDx=0;entryDy=0;exitX=0;exitY=0.5;exitDx=0;exitDy=0;" edge="1" parent="1" source="-yAS3vKNDVLwqYnA1DSh-6" target="7xk3g6JaElh0pvHqVvv3-7">
          <mxGeometry width="50" height="50" relative="1" as="geometry">
            <mxPoint x="210" y="610" as="sourcePoint" />
            <mxPoint x="260" y="560" as="targetPoint" />
          </mxGeometry>
        </mxCell>
        <mxCell id="-yAS3vKNDVLwqYnA1DSh-8" value="" style="endArrow=classic;html=1;rounded=0;entryX=0.5;entryY=0;entryDx=0;entryDy=0;exitX=0.5;exitY=1;exitDx=0;exitDy=0;" edge="1" parent="1" source="7xk3g6JaElh0pvHqVvv3-10" target="-yAS3vKNDVLwqYnA1DSh-6">
          <mxGeometry width="50" height="50" relative="1" as="geometry">
            <mxPoint x="210" y="610" as="sourcePoint" />
            <mxPoint x="260" y="560" as="targetPoint" />
          </mxGeometry>
        </mxCell>
        <mxCell id="-yAS3vKNDVLwqYnA1DSh-14" value="" style="edgeStyle=orthogonalEdgeStyle;rounded=0;orthogonalLoop=1;jettySize=auto;html=1;" edge="1" parent="1" source="-yAS3vKNDVLwqYnA1DSh-11" target="-yAS3vKNDVLwqYnA1DSh-13">
          <mxGeometry relative="1" as="geometry" />
        </mxCell>
        <mxCell id="-yAS3vKNDVLwqYnA1DSh-11" value="&lt;font style=&quot;vertical-align: inherit;&quot; dir=&quot;auto&quot;&gt;&lt;font style=&quot;vertical-align: inherit;&quot; dir=&quot;auto&quot;&gt;Consulta/Histórico&lt;/font&gt;&lt;/font&gt;" style="rounded=1;whiteSpace=wrap;html=1;" vertex="1" parent="1">
          <mxGeometry x="120" y="1640" width="120" height="60" as="geometry" />
        </mxCell>
        <mxCell id="-yAS3vKNDVLwqYnA1DSh-15" style="edgeStyle=orthogonalEdgeStyle;rounded=0;orthogonalLoop=1;jettySize=auto;html=1;exitX=0.5;exitY=1;exitDx=0;exitDy=0;entryX=0;entryY=0.5;entryDx=0;entryDy=0;" edge="1" parent="1" source="-yAS3vKNDVLwqYnA1DSh-13" target="-yAS3vKNDVLwqYnA1DSh-2">
          <mxGeometry relative="1" as="geometry" />
        </mxCell>
        <mxCell id="-yAS3vKNDVLwqYnA1DSh-13" value="&lt;font style=&quot;vertical-align: inherit;&quot; dir=&quot;auto&quot;&gt;&lt;font style=&quot;vertical-align: inherit;&quot; dir=&quot;auto&quot;&gt;Tela de Consulta e Histórico da Conta&lt;/font&gt;&lt;/font&gt;" style="whiteSpace=wrap;html=1;rounded=1;" vertex="1" parent="1">
          <mxGeometry x="120" y="1780" width="120" height="60" as="geometry" />
        </mxCell>
      </root>
    </mxGraphModel>
  </diagram>
</mxfile>
